# xmcd CD database file
#
# Track frame offsets:
#	151
#	18723
#	40104
#	55967
#	70053
#	90363
#	103323
#	120377
#	135222
#	149579
#	162511
#	177811
#	195032
#
# Disc length: 2798 seconds
#
# Revision: 0
# Processed by: cddbd v1.5.2PL0 Copyright (c) Steve Scherf et al.
# Submitted via: CDex 1.70beta2
#
DISCID=a80aec0d
DTITLE=Carter, Gordon - Cdn. - River and Roads
DYEAR=1900
DGENRE=Country
TTITLE0=The Letter
TTITLE1=A Pit Pony's Tale
TTITLE2=One Spring Morning
TTITLE3=Percy's Place(The Strand Cafe)
TTITLE4=Chicolton River
TTITLE5=I'm Sorry Tom
TTITLE6=My Mother's Eyes
TTITLE7=Likely Story
TTITLE8=When You Get Old
TTITLE9=The River
TTITLE10=Alberta Oilfields
TTITLE11=The Day They Shot Ginger Down
TTITLE12=Where You Gonna' Go
EXTD=
EXTT0=
EXTT1=
EXTT2=
EXTT3=
EXTT4=
EXTT5=
EXTT6=
EXTT7=
EXTT8=
EXTT9=
EXTT10=
EXTT11=
EXTT12=
PLAYORDER=
